Coordinates
version=1
nRows=13
nColumns=38
inDegrees=yes

Units are S.I. units (second, meters, Newtons, ...)
Angles are in degrees.

endheader
time	pelvis_tilt	pelvis_list	pelvis_rotation	pelvis_tx	pelvis_ty	pelvis_tz	hip_flexion_r	hip_adduction_r	hip_rotation_r	knee_angle_r	ankle_angle_r	subtalar_angle_r	mtp_angle_r	hip_flexion_l	hip_adduction_l	hip_rotation_l	knee_angle_l	ankle_angle_l	subtalar_angle_l	mtp_angle_l	lumbar_extension	lumbar_bending	lumbar_rotation	arm_flex_r	arm_add_r	arm_rot_r	elbow_flex_r	pro_sup_r	wrist_flex_r	wrist_dev_r	arm_flex_l	arm_add_l	arm_rot_l	elbow_flex_l	pro_sup_l	wrist_flex_l	wrist_dev_l
      4.59000000	      9.00890738	     -0.54015278	     -0.69315260	     -0.02527031	      0.91060727	     -0.00730116	    -16.00338472	      1.41827855	     -6.85166611	     -1.19115030	      0.28640497	      0.00000000	      0.00000000	    -14.89616769	      0.40262140	    -10.05543482	     -3.03829388	     -0.54752785	      0.00000000	      0.00000000	    -19.48792052	     -1.16305360	      2.76139443	      0.72856293	     -2.20785872	    -21.65866346	     32.43950291	    111.05535880	      0.00000000	      0.00000000	      3.70475234	     -2.62052272	    -24.82377890	     31.55686012	    104.38284018	      0.00000000	      0.00000000
      4.60000000	      8.84186519	     -0.52732529	     -0.66419701	     -0.02642936	      0.91044590	     -0.00727958	    -15.86354213	      1.42040436	     -6.87632878	     -1.19894631	      0.30731948	      0.00000000	      0.00000000	    -14.74653938	      0.40066792	     -9.99389736	     -3.05781280	     -0.53373984	      0.00000000	      0.00000000	    -19.48904000	     -1.18393309	      2.74255066	      0.81176688	     -2.22915680	    -21.61086403	     32.50861741	    111.04569436	      0.00000000	      0.00000000	      3.77617591	     -2.65955889	    -24.78146122	     31.67694598	    104.41873717	      0.00000000	      0.00000000
      4.61000000	      8.66175607	     -0.51472881	     -0.63651903	     -0.02762748	      0.91027507	     -0.00724979	    -15.70709143	      1.42236979	     -6.89916005	     -1.20689258	      0.32019639	      0.00000000	      0.00000000	    -14.58361571	      0.39829436	     -9.93712204	     -3.07127727	     -0.52604124	      0.00000000	      0.00000000	    -19.48485078	     -1.20542863	      2.72488948	      0.89364314	     -2.25069923	    -21.56649500	     32.58173285	    111.02861667	      0.00000000	      0.00000000	      3.84512880	     -2.69810559	    -24.74202840	     31.80281523	    104.45511854	      0.00000000	      0.00000000
      4.62000000	      8.46980442	     -0.50340592	     -0.61043016	     -0.02884999	      0.91010709	     -0.00720893	    -15.53490744	      1.42506294	     -6.92053673	     -1.21432213	      0.32382426	      0.00000000	      0.00000000	    -14.40819720	      0.39498649	     -9.88752357	     -3.07695675	     -0.52548828	      0.00000000	      0.00000000	    -19.47659778	     -1.22658552	      2.70813292	      0.97405692	     -2.27235640	    -21.52568697	     32.65933077	    111.00575185	      0.00000000	      0.00000000	      3.91444764	     -2.73475313	    -24.70634275	     31.93302170	    104.49096948	      0.00000000	      0.00000000
      4.63000000	      8.26913340	     -0.49406474	     -0.58630792	     -0.03011779	      0.90993436	     -0.00716068	    -15.34924992	      1.42909423	     -6.94126791	     -1.22050290	      0.31816188	      0.00000000	      0.00000000	    -14.22300783	      0.39032235	     -9.84698350	     -3.07518717	     -0.53197106	      0.00000000	      0.00000000	    -19.46502036	     -1.24672402	      2.69241591	      1.05312874	     -2.29482266	    -21.48791728	     32.74096419	    110.97883556	      0.00000000	      0.00000000	      3.98606390	     -2.76818766	    -24.67462394	     32.06649545	    104.52552758	      0.00000000	      0.00000000
      4.64000000	      8.06348058	     -0.48709419	     -0.56436924	     -0.03145084	      0.90974831	     -0.00710705	    -15.15381368	      1.43426989	     -6.96228816	     -1.22469635	      0.30413470	      0.00000000	      0.00000000	    -14.03202884	      0.38424295	     -9.81681146	     -3.06787825	     -0.54441150	      0.00000000	      0.00000000	    -19.45094348	     -1.26531447	      2.67887259	      1.13125434	     -2.31946831	    -21.45214633	     32.82544494	    110.94955602	      0.00000000	      0.00000000	      4.05958907	     -2.79771829	    -24.64660990	     32.20267302	    104.55832731	      0.00000000	      0.00000000
      4.65000000	      7.85611021	     -0.48207221	     -0.54495770	     -0.03284197	      0.90956849	     -0.00705395	    -14.95339672	      1.43950842	     -6.98424736	     -1.22657410	      0.28334088	      0.00000000	      0.00000000	    -13.83829131	      0.37675523	     -9.79759845	     -3.05703402	     -0.56122722	      0.00000000	      0.00000000	    -19.43654786	     -1.28206599	      2.66935543	      1.20895091	     -2.34787003	    -21.41705733	     32.91124251	    110.91942145	      0.00000000	      0.00000000	      4.13231168	     -2.82372812	    -24.62169684	     32.34139608	    104.58920028	      0.00000000	      0.00000000
      4.66000000	      7.64921426	     -0.47806021	     -0.52862431	     -0.03427790	      0.90940890	     -0.00701135	    -14.75234246	      1.44354466	     -7.00724312	     -1.22636121	      0.25771189	      0.00000000	      0.00000000	    -13.64297544	      0.36814328	     -9.78915212	     -3.04422833	     -0.58080816	      0.00000000	      0.00000000	    -19.42554858	     -1.29718454	      2.66525893	      1.28672582	     -2.38109558	    -21.38130596	     32.99697482	    110.88967102	      0.00000000	      0.00000000	      4.20096029	     -2.84758837	    -24.59894113	     32.48263977	    104.61824213	      0.00000000	      0.00000000
      4.67000000	      7.44416036	     -0.47478282	     -0.51573464	     -0.03574393	      0.90924964	     -0.00697957	    -14.55230292	      1.44593178	     -7.03082841	     -1.22459129	      0.22916593	      0.00000000	      0.00000000	    -13.44612031	      0.35956935	     -9.79057893	     -3.03154766	     -0.60179071	      0.00000000	      0.00000000	    -19.42167606	     -1.31137430	      2.66648168	      1.36516330	     -2.41909235	    -21.34370480	     33.08185210	    110.86123449	      0.00000000	      0.00000000	      4.26393024	     -2.87102641	    -24.57699791	     32.62620071	    104.64576178	      0.00000000	      0.00000000
      4.68000000	      7.24138579	     -0.47251914	     -0.50616405	     -0.03722970	      0.90908335	     -0.00695112	    -14.35154791	      1.44761352	     -7.05429892	     -1.22210348	      0.19937644	      0.00000000	      0.00000000	    -13.24714489	      0.35204741	     -9.80038123	     -3.02239142	     -0.62307368	      0.00000000	      0.00000000	    -19.42686624	     -1.32548669	      2.67132341	      1.44509819	     -2.46059410	    -21.30331446	     33.16590745	    110.83473609	      0.00000000	      0.00000000	      4.32242288	     -2.89533780	    -24.55412787	     32.77149705	    104.67222840	      0.00000000	      0.00000000
      4.69000000	      7.03982779	     -0.47131692	     -0.49910159	     -0.03875601	      0.90893089	     -0.00692201	    -14.14644750	      1.45065919	     -7.07701370	     -1.22036716	      0.16972169	      0.00000000	      0.00000000	    -13.04392856	      0.34459494	     -9.81654161	     -3.02061945	     -0.64368602	      0.00000000	      0.00000000	    -19.44086285	     -1.34015678	      2.67720829	      1.52760111	     -2.50363083	    -21.25945275	     33.24992161	    110.81053195	      0.00000000	      0.00000000	      4.37998505	     -2.92090855	    -24.52832457	     32.91758446	    104.69822566	      0.00000000	      0.00000000
      4.70000000	      6.83735246	     -0.47151536	     -0.49275855	     -0.04035554	      0.90879090	     -0.00688265	    -13.93323339	      1.45718366	     -7.09850079	     -1.22140808	      0.14134516	      0.00000000	      0.00000000	    -12.83155116	      0.33432444	     -9.83664366	     -3.02859290	     -0.66282684	      0.00000000	      0.00000000	    -19.46226763	     -1.35552331	      2.68175284	      1.61362151	     -2.54634950	    -21.21165730	     33.33510204	    110.78876749	      0.00000000	      0.00000000	      4.44078888	     -2.94737198	    -24.49754321	     33.06336974	    104.72441454	      0.00000000	      0.00000000
      4.71000000	      6.63182146	     -0.47391857	     -0.48471431	     -0.04202457	      0.90864529	     -0.00682141	    -13.70875617	      1.46852850	     -7.11841252	     -1.22708296	      0.11516399	      0.00000000	      0.00000000	    -12.60343602	      0.31812359	     -9.85798813	     -3.04605813	     -0.68028579	      0.00000000	      0.00000000	    -19.48940245	     -1.37103463	      2.68367023	      1.70341289	     -2.58771647	    -21.15963825	     33.42269232	    110.76944046	      0.00000000	      0.00000000	      4.50754043	     -2.97426609	    -24.45995731	     33.20789671	    104.75149997	      0.00000000	      0.00000000
